<svg width="45" height="45" viewBox="0 0 45 45" fill="none" xmlns="http://www.w3.org/2000/svg">
<g id="Frame">
<g id="Group">
<path id="Vector" d="M40.6055 6.50391H4.39453C1.97139 6.50391 0 8.47529 0 10.8984V34.1016C0 36.5247 1.97139 38.4961 4.39453 38.4961H18.0176C18.503 38.4961 18.8965 38.1026 18.8965 37.6172C18.8965 37.1318 18.503 36.7383 18.0176 36.7383H4.39453C2.94064 36.7383 1.75781 35.5554 1.75781 34.1016V23.3789H20.8599C21.0008 24.0922 21.4254 24.7208 22.0551 25.1201C22.257 25.2478 22.4749 25.3481 22.7031 25.4185L21.1557 28.0796C21.0682 28.2301 21.0273 28.4033 21.0382 28.577C21.0492 28.7508 21.1116 28.9174 21.2174 29.0557C21.3232 29.1939 21.4677 29.2977 21.6326 29.3537C21.7974 29.4097 21.9752 29.4155 22.1433 29.3703L24.248 28.8055L24.8111 30.9105C24.856 31.0785 24.9497 31.2294 25.0804 31.344C25.2111 31.4587 25.3729 31.5321 25.5452 31.5548C25.7176 31.5775 25.8929 31.5486 26.0488 31.4717C26.2048 31.3949 26.3344 31.2734 26.4213 31.1229L30.4284 24.1823L35.4487 33.108C35.5343 33.2602 35.6634 33.3835 35.8194 33.4621C35.9755 33.5406 36.1514 33.5709 36.3247 33.5491C36.498 33.5272 36.6609 33.4542 36.7925 33.3393C36.9242 33.2245 37.0186 33.073 37.0637 32.9042L37.6269 30.7991L39.7316 31.3639C39.899 31.4089 40.0759 31.4033 40.2401 31.348C40.4044 31.2926 40.5486 31.19 40.6547 31.0529C40.7607 30.9158 40.8239 30.7504 40.8362 30.5775C40.8485 30.4047 40.8094 30.232 40.7239 30.0813L38.1393 25.5267C38.2209 25.5342 38.3027 25.5389 38.3846 25.5389C38.8841 25.5389 39.3812 25.3981 39.8199 25.12C40.4496 24.7208 40.8743 24.0921 41.0151 23.3788H43.2422V34.1015C43.2422 35.5554 42.0594 36.7382 40.6055 36.7382H31.8164V31.9921C31.8164 31.5067 31.4229 31.1132 30.9375 31.1132C30.4521 31.1132 30.0586 31.5067 30.0586 31.9921V36.7382H25.4914C25.0059 36.7382 24.6125 37.1317 24.6125 37.6171C24.6125 38.1025 25.0059 38.496 25.4914 38.496H40.6055C43.0286 38.496 45 36.5246 45 34.1015V10.8984C45 8.47529 43.0286 6.50391 40.6055 6.50391ZM22.9963 23.6354C22.7229 23.4621 22.5661 23.177 22.5661 22.8532V16.6954H22.566C22.566 16.3716 22.7228 16.0865 22.9962 15.9132C23.2697 15.7398 23.5944 15.7197 23.8872 15.8578L28.1994 17.8924C28.0903 18.1888 28.0345 18.5023 28.0348 18.8182V20.6982C28.0348 21.0338 28.0972 21.3549 28.2103 21.6512L23.8873 23.6907C23.5945 23.8287 23.2698 23.8087 22.9963 23.6354ZM25.9606 28.4053L25.7188 27.5014C25.689 27.3899 25.6374 27.2853 25.5672 27.1937C25.4969 27.102 25.4092 27.0251 25.3092 26.9674C25.2092 26.9097 25.0988 26.8722 24.9843 26.8571C24.8698 26.8421 24.7535 26.8497 24.642 26.8797L23.7473 27.1198L24.8846 25.1639L28.9355 23.2526L25.9606 28.4053ZM24.6373 14.268C23.8011 13.8735 22.8359 13.9336 22.0552 14.4285C21.2745 14.9234 20.8083 15.7708 20.8083 16.6953V21.6211H1.75781V10.8984C1.75781 9.44455 2.94064 8.26172 4.39453 8.26172H30.0586V15.791C30.0586 15.9364 30.0945 16.0731 30.1569 16.1938C29.8794 16.2533 29.6132 16.3567 29.3683 16.5001L24.6373 14.268ZM31.1699 21.6243H30.7187C30.208 21.6243 29.7925 21.2088 29.7925 20.6982V18.8181C29.7925 18.3074 30.208 17.8921 30.7187 17.8921H31.1699C31.6805 17.8921 32.096 18.3074 32.096 18.8181V20.6982C32.096 21.2089 31.6805 21.6243 31.1699 21.6243ZM38.1582 29.1216L37.233 28.8733C37.1215 28.8434 37.0052 28.8358 36.8907 28.8508C36.7762 28.8659 36.6658 28.9034 36.5658 28.9611C36.4658 29.0188 36.3782 29.0957 36.3079 29.1873C36.2376 29.2789 36.186 29.3835 36.1562 29.495L35.9232 30.3659L31.9327 23.271C32.1262 23.2135 32.3106 23.1347 32.4833 23.0374L35.518 24.4692L38.1582 29.1216ZM38.8788 23.6355C38.6053 23.8089 38.2806 23.829 37.9878 23.6908L33.6763 21.6566C33.7937 21.3507 33.8539 21.0259 33.8538 20.6982V18.8181C33.8538 18.4909 33.7947 18.1772 33.6871 17.887L37.9878 15.8578C38.2807 15.7198 38.6053 15.7399 38.8788 15.9132C39.1522 16.0865 39.309 16.3716 39.309 16.6954V22.8533C39.309 23.177 39.1522 23.4621 38.8788 23.6355ZM43.2423 21.6211H41.0668V16.6954C41.0668 15.7709 40.6006 14.9235 39.8199 14.4286C39.0391 13.9337 38.0738 13.8737 37.2378 14.2681L32.5143 16.4966C32.2674 16.3528 31.9991 16.2497 31.7196 16.191C31.7832 16.0673 31.8165 15.9302 31.8165 15.791V8.26172H40.6056C42.0594 8.26172 43.2423 9.44455 43.2423 10.8984V21.6211Z" fill="#27231E"/>
<path id="Vector_2" d="M22.3084 36.9958C22.1449 36.8323 21.9182 36.7383 21.687 36.7383C21.4559 36.7383 21.2291 36.8323 21.0656 36.9958C20.9021 37.1593 20.8081 37.386 20.8081 37.6172C20.8081 37.8483 20.9021 38.0751 21.0656 38.2386C21.2291 38.4021 21.4559 38.4961 21.687 38.4961C21.9182 38.4961 22.1449 38.4021 22.3084 38.2386C22.4728 38.0751 22.5659 37.8483 22.5659 37.6172C22.5659 37.386 22.4728 37.1593 22.3084 36.9958ZM18.5889 11.25H5.625C5.13958 11.25 4.74609 11.6435 4.74609 12.1289C4.74609 12.6143 5.13958 13.0078 5.625 13.0078H18.5889C19.0743 13.0078 19.4678 12.6143 19.4678 12.1289C19.4678 11.6435 19.0743 11.25 18.5889 11.25ZM18.5889 31.1133H5.625C5.13958 31.1133 4.74609 31.5068 4.74609 31.9922C4.74609 32.4776 5.13958 32.8711 5.625 32.8711H18.5889C19.0743 32.8711 19.4678 32.4776 19.4678 31.9922C19.4678 31.5068 19.0743 31.1133 18.5889 31.1133ZM11.0742 15.9961H5.625C5.13958 15.9961 4.74609 16.3896 4.74609 16.875C4.74609 17.3604 5.13958 17.7539 5.625 17.7539H11.0742C11.5596 17.7539 11.9531 17.3604 11.9531 16.875C11.9531 16.3896 11.5596 15.9961 11.0742 15.9961ZM15.0961 16.2536C14.9309 16.0894 14.7076 15.9969 14.4747 15.9961C14.2427 15.9961 14.0168 16.0901 13.8533 16.2536C13.6898 16.4171 13.5958 16.6438 13.5958 16.875C13.5958 17.1062 13.6898 17.3329 13.8533 17.4964C14.0168 17.6599 14.2427 17.7539 14.4747 17.7539C14.7059 17.7539 14.9326 17.6599 15.0961 17.4964C15.2596 17.3329 15.3536 17.1062 15.3536 16.875C15.3536 16.6438 15.2596 16.4171 15.0961 16.2536Z" fill="#27231E"/>
</g>
</g>
</svg>
