<svg width="45" height="45" viewBox="0 0 45 45" fill="none" xmlns="http://www.w3.org/2000/svg">
<g id="Frame" clip-path="url(#clip0_207_710)">
<g id="Group">
<path id="Vector" d="M17.502 6.16782L14.0865 4.03407C13.8068 3.85635 13.4841 3.75788 13.1528 3.74916C12.8216 3.74045 12.4942 3.82181 12.2055 3.98457C11.9159 4.14484 11.6745 4.37977 11.5065 4.66494C11.3385 4.9501 11.2499 5.27508 11.25 5.60607V15.1378C10.8128 15.2924 10.4341 15.5782 10.1656 15.9563C9.89706 16.3343 9.75192 16.7861 9.75 17.2498V21.1378C9.31282 21.2924 8.93407 21.5782 8.66557 21.9563C8.39706 22.3343 8.25192 22.7861 8.25 23.2498V41.2498C8.25119 42.244 8.64666 43.1972 9.34967 43.9002C10.0527 44.6032 11.0058 44.9986 12 44.9998H18C18.9942 44.9986 19.9473 44.6032 20.6503 43.9002C21.3533 43.1972 21.7488 42.244 21.75 41.2498V23.2498C21.7481 22.7861 21.6029 22.3343 21.3344 21.9563C21.0659 21.5782 20.6872 21.2924 20.25 21.1378V17.2498C20.2481 16.7861 20.1029 16.3343 19.8344 15.9563C19.5659 15.5782 19.1872 15.2924 18.75 15.1378V8.42082C18.7516 7.96998 18.6378 7.52623 18.4193 7.13186C18.2008 6.73748 17.885 6.40559 17.502 6.16782ZM12.75 5.60607C12.75 5.54291 12.767 5.48092 12.7991 5.42652C12.8312 5.37212 12.8772 5.32729 12.9324 5.29668C12.9877 5.26607 13.0501 5.2508 13.1133 5.25245C13.1764 5.25411 13.2379 5.27262 13.2915 5.30607L16.7063 7.43982C16.873 7.54341 17.0105 7.68792 17.1057 7.85962C17.2008 8.03132 17.2505 8.22451 17.25 8.42082V14.9998H12.75V5.60607ZM11.25 17.2498C11.25 17.0509 11.329 16.8601 11.4697 16.7195C11.6103 16.5788 11.8011 16.4998 12 16.4998H18C18.1989 16.4998 18.3897 16.5788 18.5303 16.7195C18.671 16.8601 18.75 17.0509 18.75 17.2498V20.9998H11.25V17.2498ZM10.5 22.4998H19.5C19.6989 22.4998 19.8897 22.5788 20.0303 22.7195C20.171 22.8601 20.25 23.0509 20.25 23.2498V24.7498H9.75V23.2498C9.75 23.0509 9.82902 22.8601 9.96967 22.7195C10.1103 22.5788 10.3011 22.4998 10.5 22.4998ZM18 43.4998H12C11.4033 43.4998 10.831 43.2628 10.409 42.8408C9.98705 42.4189 9.75 41.8466 9.75 41.2498V26.2498H20.25V41.2498C20.25 41.8466 20.0129 42.4189 19.591 42.8408C19.169 43.2628 18.5967 43.4998 18 43.4998ZM37.4888 1.59582C35.4191 0.487973 33.0967 -0.06206 30.75 -0.000183002C28.4033 -0.06206 26.0809 0.487973 24.0113 1.59582C23.0707 2.13737 22.3569 2.99972 22.0005 4.02484C21.6442 5.04995 21.6692 6.16915 22.071 7.17732L25.2698 15.2338C24.8906 15.4173 24.5706 15.7036 24.3461 16.06C24.1217 16.4164 24.0017 16.8286 24 17.2498V41.2498C24.0012 42.244 24.3967 43.1972 25.0997 43.9002C25.8027 44.6032 26.7558 44.9986 27.75 44.9998H33.75C34.7442 44.9986 35.6973 44.6032 36.4003 43.9002C37.1033 43.1972 37.4988 42.244 37.5 41.2498V17.2498C37.4983 16.8286 37.3783 16.4164 37.1539 16.06C36.9294 15.7036 36.6094 15.4173 36.2303 15.2338L39.429 7.17732C39.8308 6.16915 39.8558 5.04995 39.4995 4.02484C39.1431 2.99972 38.4293 2.13737 37.4888 1.59582ZM35.25 16.4998C35.4489 16.4998 35.6397 16.5788 35.7803 16.7195C35.921 16.8601 36 17.0509 36 17.2498V18.7498H25.5V17.2498C25.5 17.0509 25.579 16.8601 25.7197 16.7195C25.8603 16.5788 26.0511 16.4998 26.25 16.4998H35.25ZM36 20.2498V39.7498H25.5V20.2498H36ZM33.75 43.4998H27.75C27.1533 43.4998 26.581 43.2628 26.159 42.8408C25.7371 42.4189 25.5 41.8466 25.5 41.2498H36C36 41.8466 35.7629 42.4189 35.341 42.8408C34.919 43.2628 34.3467 43.4998 33.75 43.4998ZM38.0348 6.62382L34.7085 14.9998H26.7915L23.4653 6.62382C23.196 5.95247 23.1777 5.2066 23.4137 4.52285C23.6496 3.8391 24.124 3.26326 24.75 2.90082C26.5951 1.92244 28.6625 1.4397 30.75 1.49982C32.8375 1.4397 34.9049 1.92244 36.75 2.90082C37.376 3.26326 37.8504 3.8391 38.0863 4.52285C38.3223 5.2066 38.304 5.95247 38.0348 6.62382Z" fill="#27231E"/>
<path id="Vector_2" d="M26.9614 5.013C26.8986 4.82403 26.7632 4.66778 26.5852 4.5786C26.4071 4.48943 26.2009 4.47464 26.0119 4.5375C25.823 4.60036 25.6667 4.73571 25.5775 4.91377C25.4884 5.09184 25.4736 5.29803 25.5364 5.487L27.0364 9.987C27.0676 10.0806 27.1168 10.1671 27.1814 10.2416C27.2459 10.3162 27.3245 10.3772 27.4127 10.4214C27.5009 10.4656 27.5969 10.4919 27.6952 10.499C27.7936 10.506 27.8924 10.4936 27.9859 10.4625C28.0795 10.4314 28.166 10.3821 28.2406 10.3176C28.3151 10.253 28.3762 10.1744 28.4203 10.0862C28.4645 9.99806 28.4908 9.90206 28.4979 9.8037C28.5049 9.70535 28.4926 9.60657 28.4614 9.513L26.9614 5.013ZM35.4874 4.539C35.2989 4.47629 35.0931 4.49099 34.9154 4.57986C34.7376 4.66874 34.6024 4.82452 34.5394 5.013L33.0394 9.513C33.0083 9.60657 32.9959 9.70535 33.003 9.8037C33.01 9.90206 33.0364 9.99806 33.0805 10.0862C33.1247 10.1744 33.1858 10.253 33.2603 10.3176C33.3348 10.3821 33.4214 10.4314 33.5149 10.4625C33.6085 10.4936 33.7073 10.506 33.8056 10.499C33.904 10.4919 34 10.4656 34.0882 10.4214C34.1763 10.3772 34.2549 10.3162 34.3195 10.2416C34.3841 10.1671 34.4333 10.0806 34.4644 9.987L35.9644 5.487C35.9954 5.39344 36.0077 5.29468 36.0004 5.19639C35.9932 5.09809 35.9667 5.00218 35.9224 4.91413C35.8781 4.82609 35.8169 4.74764 35.7423 4.68327C35.6676 4.61891 35.581 4.56988 35.4874 4.539ZM30.7504 3C30.5515 3 30.3608 3.07902 30.2201 3.21967C30.0794 3.36032 30.0004 3.55109 30.0004 3.75V9C30.0004 9.19891 30.0794 9.38968 30.2201 9.53033C30.3608 9.67098 30.5515 9.75 30.7504 9.75C30.9493 9.75 31.1401 9.67098 31.2808 9.53033C31.4214 9.38968 31.5004 9.19891 31.5004 9V3.75C31.5004 3.55109 31.4214 3.36032 31.2808 3.21967C31.1401 3.07902 30.9493 3 30.7504 3Z" fill="#27231E"/>
</g>
</g>
<defs>
<clipPath id="clip0_207_710">
<rect width="45" height="45" fill="white"/>
</clipPath>
</defs>
</svg>
