<svg width="45" height="45" viewBox="0 0 45 45" fill="none" xmlns="http://www.w3.org/2000/svg">
<g id="Frame" clip-path="url(#clip0_207_775)">
<g id="Group">
<path id="Vector" d="M11.9103 35.5992V21.1763C11.9103 20.4456 12.5024 19.8525 13.234 19.8525C13.9635 19.8525 14.5577 20.4455 14.5577 21.1763V35.5991M10.3201 34.2014C10.057 34.0503 9.78536 33.9147 9.50647 33.7954C8.54986 33.3842 7.57744 33.1848 6.68175 33.1786C4.99891 33.1645 3.58606 33.8325 3.05837 35.0617C2.75743 35.7615 2.78573 36.5443 3.08131 37.312C3.44131 38.243 3.44131 39.2747 3.08131 40.2056C2.78565 40.9742 2.75743 41.757 3.05837 42.4568C3.86758 44.3399 6.75408 44.9056 9.50647 43.7231C10.5275 43.2837 11.3861 42.6651 12.0215 41.9634" stroke="#867259" stroke-width="1.5" stroke-miterlimit="10" stroke-linecap="round" stroke-linejoin="round"/>
<path id="Vector_2" d="M12.0217 35.5544C11.9851 35.5143 11.9481 35.4746 11.9105 35.4353C11.4719 34.9765 10.9362 34.5556 10.3203 34.2026M14.4467 35.5544C14.4829 35.5147 14.5199 35.475 14.5579 35.4353C14.9964 34.9756 15.533 34.5547 16.149 34.2017C17.2254 33.5824 18.5187 33.1877 19.7856 33.1789C21.4684 33.1648 22.8822 33.8328 23.4099 35.0621C23.7108 35.7619 23.6826 36.5446 23.3869 37.3123C23.0269 38.2433 23.0269 39.275 23.3869 40.206C23.6826 40.9746 23.7108 41.7573 23.4099 42.4571C22.6007 44.3402 19.7133 44.9059 16.9618 43.7234C15.9399 43.284 15.0813 42.6654 14.4468 41.9638" stroke="#867259" stroke-width="1.5" stroke-miterlimit="10" stroke-linecap="round" stroke-linejoin="round"/>
<path id="Vector_3" d="M16.6605 38.7592C16.6605 37.3367 15.7931 36.1163 14.5585 35.5991C14.5223 35.5832 14.4853 35.5683 14.4474 35.5541C14.0705 35.4121 13.662 35.3335 13.2348 35.3335C12.8077 35.3335 12.3991 35.4121 12.0223 35.5541C11.9843 35.5682 11.9473 35.5832 11.9111 35.5991C10.6766 36.1163 9.80911 37.3367 9.80911 38.7592M16.6605 38.7592C16.6605 40.2241 15.741 41.4745 14.4474 41.9635C14.0706 42.1065 13.662 42.185 13.2348 42.185C12.8077 42.185 12.3992 42.1064 12.0223 41.9635C10.7286 41.4746 9.80911 40.2241 9.80911 38.7592M16.6605 38.7592H19.8259M9.80911 38.7592H6.64285M6.19628 18.7698C5.76649 20.69 5.52734 22.8176 5.52734 25.0573C5.52734 28.0373 5.95001 30.8197 6.68249 33.1777M7.06815 15.81C8.47388 12.0648 10.7127 9.64258 13.2347 9.64258C17.4917 9.64258 20.9421 16.5434 20.9421 25.0574C20.9421 28.0374 20.5195 30.8198 19.7861 33.1778" stroke="#867259" stroke-width="1.5" stroke-miterlimit="10" stroke-linecap="round" stroke-linejoin="round"/>
<path id="Vector_4" d="M16.1472 34.2025L16.1481 34.2016C17.2617 31.7713 17.8953 28.471 17.8953 25.0575C17.8953 21.4571 17.1903 17.9794 15.9601 15.519C14.9814 13.5635 13.8854 12.6881 13.2333 12.6881C12.5811 12.6881 11.4851 13.5635 10.5065 15.519C9.27634 17.9794 8.57031 21.4571 8.57031 25.0575C8.57031 28.4709 9.20479 31.7712 10.3193 34.2016V34.2025M33.0886 9.40186V23.8238C33.0886 24.5545 32.4956 25.1475 31.7649 25.1475C31.034 25.1475 30.4412 24.5546 30.4412 23.8238V9.40194" stroke="#867259" stroke-width="1.5" stroke-miterlimit="10" stroke-linecap="round" stroke-linejoin="round"/>
<path id="Vector_5" d="M28.8516 10.7977C29.4884 10.4327 30.0645 9.98202 30.5529 9.4458" stroke="#867259" stroke-width="1.5" stroke-miterlimit="10" stroke-linecap="round" stroke-linejoin="round"/>
<path id="Vector_6" d="M30.5527 3.03653C29.9173 2.33498 29.0587 1.71641 28.0377 1.27687C25.2853 0.0943877 22.3988 0.660052 21.5896 2.5432C21.2887 3.24298 21.317 4.02574 21.6126 4.79434C21.9726 5.72529 21.9726 6.75701 21.6126 7.68796C21.3169 8.45569 21.2887 9.23844 21.5896 9.93823C22.1173 11.1675 23.5302 11.8355 25.213 11.8214C26.4751 11.8127 27.7722 11.4195 28.8514 10.7986M32.9777 3.03653C33.6122 2.33498 34.4708 1.71641 35.4927 1.27687C38.2442 0.0943877 41.1316 0.660052 41.9408 2.5432C42.2417 3.24298 42.2135 4.02574 41.9178 4.79434C41.5578 5.72529 41.5578 6.75701 41.9178 7.68796C42.2135 8.45569 42.2417 9.23844 41.9408 9.93823C41.4131 11.1675 39.9994 11.8355 38.3165 11.8214C36.4048 11.8082 34.313 10.9114 32.9776 9.44578" stroke="#867259" stroke-width="1.5" stroke-miterlimit="10" stroke-linecap="round" stroke-linejoin="round"/>
<path id="Vector_7" d="M35.1917 6.24066C35.1917 7.66317 34.3243 8.88362 33.0897 9.40076V9.40164C32.2395 9.75417 31.296 9.75567 30.4423 9.40164V9.40076C29.2078 8.88362 28.3403 7.66317 28.3403 6.24066M35.1917 6.24066C35.1917 4.77578 34.2722 3.52536 32.9785 3.03643C32.5912 2.88956 32.1803 2.8145 31.766 2.81494C29.8819 2.81494 28.3403 4.34178 28.3403 6.24066M35.1917 6.24066H37.4747M28.3403 6.24066H26.0565M25.2137 11.8222C24.4813 14.1802 24.0586 16.9625 24.0586 19.9426C24.0586 28.4566 27.509 35.3574 31.766 35.3574C36.023 35.3574 39.4734 28.4566 39.4734 19.9426C39.4734 16.9626 39.0507 14.1802 38.3174 11.8222" stroke="#867259" stroke-width="1.5" stroke-miterlimit="10" stroke-linecap="round" stroke-linejoin="round"/>
<path id="Vector_8" d="M34.6803 10.7979L34.6812 10.7987C36.3893 14.5263 37.0033 20.425 35.8081 25.669M28.8525 10.7979V10.7987C27.738 13.229 27.1035 16.5294 27.1035 19.9428C27.1035 23.5432 27.8095 27.021 29.0397 29.4813C30.0183 31.4369 31.1143 32.3122 31.7665 32.3122C32.4186 32.3122 33.5146 31.4369 34.4933 29.4813C34.6351 29.1971 34.7664 28.9077 34.8868 28.6138" stroke="#867259" stroke-width="1.5" stroke-miterlimit="10" stroke-linecap="round" stroke-linejoin="round"/>
</g>
</g>
<defs>
<clipPath id="clip0_207_775">
<rect width="45" height="45" fill="white"/>
</clipPath>
</defs>
</svg>
