<svg width="45" height="45" viewBox="0 0 45 45" fill="none" xmlns="http://www.w3.org/2000/svg">
<g id="Group">
<g id="Mask group">
<g id="Group_2">
<g id="Clip path group">
<mask id="mask0_207_751" style="mask-type:luminance" maskUnits="userSpaceOnUse" x="0" y="0" width="45" height="45">
<g id="b">
<path id="Vector" d="M44.2499 44.25V0.750134H0.75V44.25H44.2499Z" fill="white" stroke="white" stroke-width="1.5"/>
</g>
</mask>
<g mask="url(#mask0_207_751)">
<g id="Group_3">
<path id="Vector_2" d="M16.2915 5.44097C16.2915 5.44097 16.2093 2.64342 18.2751 0.876996C18.2751 0.876996 19.6924 3.26937 19.6924 5.44141" stroke="#27231E" stroke-width="1.5" stroke-miterlimit="10" stroke-linecap="round" stroke-linejoin="round"/>
<path id="Vector_3" d="M29.1611 12.0643C28.944 13.2016 28.7832 14.2792 28.7832 14.9788V18.0532C28.7832 18.0532 34.5031 28.513 41.8077 35.8158C41.8077 35.8158 39.9602 37.324 36.7944 38.8911" stroke="#27231E" stroke-width="1.5" stroke-miterlimit="10" stroke-linecap="round" stroke-linejoin="round"/>
<path id="Vector_4" d="M8.3785 38.8911C5.21269 37.324 3.36523 35.8158 3.36523 35.8158C10.6698 28.513 16.3897 18.0532 16.3897 18.0532V14.9788C16.3897 12.8237 14.8631 7.07392 14.8631 7.07392C16.3001 3.03272 22.5869 6.62568 22.5869 6.62568C22.5869 6.62568 28.8745 3.03272 30.3115 7.07392C30.3115 7.07392 30.032 8.12597 29.7121 9.49882" stroke="#27231E" stroke-width="1.5" stroke-miterlimit="10" stroke-linecap="round" stroke-linejoin="round"/>
<path id="Vector_5" d="M27.3259 22.2877C27.3259 22.2877 31.7002 32.439 37.2865 39.5274C37.2865 39.5274 31.1729 43.8999 22.586 43.8999C19.1003 43.8999 16.0224 43.1792 13.5957 42.3232" stroke="#27231E" stroke-width="1.5" stroke-miterlimit="10" stroke-linecap="round" stroke-linejoin="round"/>
<path id="Vector_6" d="M11.1518 41.3335C9.07939 40.3808 7.88672 39.5273 7.88672 39.5273C13.473 32.439 17.8473 22.2877 17.8473 22.2877" stroke="#27231E" stroke-width="1.5" stroke-miterlimit="10" stroke-linecap="round" stroke-linejoin="round"/>
<path id="Vector_7" d="M28.8814 5.44097C28.8814 5.44097 28.9635 2.64342 26.8977 0.876996C26.8977 0.876996 25.4805 3.26937 25.4805 5.44141" stroke="#27231E" stroke-width="1.5" stroke-miterlimit="10" stroke-linecap="round" stroke-linejoin="round"/>
<path id="Vector_8" d="M16.3887 14.9785H28.7836" stroke="#27231E" stroke-width="1.5" stroke-miterlimit="10" stroke-linecap="round" stroke-linejoin="round"/>
<path id="Vector_9" d="M16.3887 18.0532H28.7836" stroke="#27231E" stroke-width="1.5" stroke-miterlimit="10" stroke-linecap="round" stroke-linejoin="round"/>
</g>
</g>
</g>
</g>
</g>
</g>
</svg>
