<svg width="16" height="20" viewBox="0 0 16 20" fill="none" xmlns="http://www.w3.org/2000/svg">
<g id="Group">
<path id="Vector" d="M14.9589 2.6424H11.7574V1.35241C11.7574 0.606685 11.1507 0 10.405 0H5.59502C4.84929 0 4.2426 0.606685 4.2426 1.35241V2.6424H1.04111C0.53721 2.6424 0.127319 3.05229 0.127319 3.55619V5.23092C0.127319 5.73482 0.53721 6.14471 1.04111 6.14471H1.57184V18.7206C1.57184 19.4261 2.14578 19.9999 2.85115 19.9999H13.1488C13.8542 19.9999 14.4281 19.4261 14.4281 18.7206V6.14478H14.9589C15.4628 6.14478 15.8727 5.73489 15.8727 5.23099V3.55619C15.8727 3.05236 15.4627 2.6424 14.9589 2.6424ZM5.33916 1.35241C5.33916 1.21374 5.45634 1.09655 5.59502 1.09655H10.405C10.5437 1.09655 10.6609 1.21374 10.6609 1.35241V2.6424H5.33916V1.35241ZM13.3316 18.7207C13.3316 18.8197 13.2479 18.9034 13.1488 18.9034H2.85115C2.7521 18.9034 2.66839 18.8197 2.66839 18.7207V6.14478H13.3316V18.7207ZM14.7762 5.04823H1.22387V3.73895H14.7762V5.04823Z" fill="#A6A5A3"/>
<path id="Vector_2" d="M4.79083 17.3529C4.93624 17.3529 5.0757 17.2951 5.17852 17.1923C5.28134 17.0895 5.33911 16.95 5.33911 16.8046V8.44085C5.33911 8.29544 5.28134 8.15599 5.17852 8.05316C5.0757 7.95034 4.93624 7.89258 4.79083 7.89258C4.64542 7.89258 4.50596 7.95034 4.40314 8.05316C4.30032 8.15599 4.24255 8.29544 4.24255 8.44085V16.8046C4.24255 16.95 4.30032 17.0895 4.40314 17.1923C4.50596 17.2951 4.64542 17.3529 4.79083 17.3529ZM8 17.3529C8.14541 17.3529 8.28486 17.2951 8.38769 17.1923C8.49051 17.0895 8.54827 16.95 8.54827 16.8046V8.44085C8.54827 8.29544 8.49051 8.15599 8.38769 8.05316C8.28486 7.95034 8.14541 7.89258 8 7.89258C7.85458 7.89258 7.71513 7.95034 7.61231 8.05316C7.50949 8.15599 7.45172 8.29544 7.45172 8.44085V16.8046C7.45172 16.95 7.50949 17.0895 7.61231 17.1923C7.71513 17.2951 7.85458 17.3529 8 17.3529ZM11.2091 17.3529C11.3545 17.3529 11.494 17.2951 11.5968 17.1923C11.6996 17.0895 11.7574 16.95 11.7574 16.8046V8.44085C11.7574 8.29544 11.6996 8.15599 11.5968 8.05316C11.494 7.95034 11.3545 7.89258 11.2091 7.89258C11.0637 7.89258 10.9242 7.95034 10.8214 8.05316C10.7186 8.15599 10.6608 8.29544 10.6608 8.44085V16.8046C10.6608 16.95 10.7186 17.0895 10.8214 17.1923C10.9242 17.2951 11.0637 17.3529 11.2091 17.3529Z" fill="#A6A5A3"/>
</g>
</svg>
