<svg width="24" height="24" viewBox="0 0 24 24" fill="none" xmlns="http://www.w3.org/2000/svg">
<g id="Heart" clip-path="url(#clip0_737_3915)">
<path id="Vector" d="M21.8768 3.10144C20.4889 1.71352 18.632 0.949219 16.6475 0.949219C14.939 0.949219 13.3252 1.51584 12.0236 2.559C10.7033 1.51584 9.08747 0.949219 7.39566 0.949219C5.40197 0.949219 3.54009 1.71384 2.15222 3.10144C0.764297 4.48908 0 6.34636 0 8.33053C0 10.315 0.764297 12.172 2.15222 13.5596L11.3896 22.797C11.4697 22.8773 11.5648 22.941 11.6695 22.9845C11.7743 23.0279 11.8866 23.0501 12 23.0499C12.2205 23.0499 12.4409 22.9659 12.6095 22.7981L21.8544 13.5814C23.2383 12.1665 24 10.3069 24 8.34492C24 6.36478 23.2484 4.5052 21.8768 3.10144ZM20.6276 12.3662L12.0008 20.9665L3.37294 12.3389C2.31136 11.277 1.72659 9.85341 1.72659 8.33053C1.72659 6.80766 2.31136 5.38406 3.37294 4.3222C4.4348 3.26063 5.86331 2.67586 7.39566 2.67586C8.90358 2.67586 10.335 3.2632 11.4253 4.32909C11.7631 4.65975 12.305 4.65684 12.6391 4.3222C13.701 3.26063 15.1243 2.67586 16.6475 2.67586C18.1706 2.67586 19.5939 3.26062 20.6486 4.31527C21.6964 5.3872 22.2734 6.8183 22.2734 8.34492C22.2734 9.85312 21.6863 11.2842 20.6276 12.3662Z" fill="#FFFEFD"/>
</g>
<defs>
<clipPath id="clip0_737_3915">
<rect width="24" height="24" fill="white"/>
</clipPath>
</defs>
</svg>
