<svg width="24" height="24" viewBox="0 0 24 24" fill="none" xmlns="http://www.w3.org/2000/svg">
<g id="Frame" clip-path="url(#clip0_105_237)">
<g id="Group">
<path id="Vector" d="M21.8768 3.10193C20.4889 1.714 18.632 0.949707 16.6475 0.949707C14.939 0.949707 13.3252 1.51633 12.0236 2.55949C10.7033 1.51633 9.08747 0.949707 7.39566 0.949707C5.40197 0.949707 3.54009 1.71433 2.15222 3.10193C0.764297 4.48957 0 6.34685 0 8.33102C0 10.3155 0.764297 12.1725 2.15222 13.5601L11.3896 22.7975C11.4697 22.8778 11.5648 22.9415 11.6695 22.9849C11.7743 23.0284 11.8866 23.0506 12 23.0504C12.2205 23.0504 12.4409 22.9664 12.6095 22.7986L21.8544 13.5819C23.2383 12.167 24 10.3074 24 8.34541C24 6.36527 23.2484 4.50569 21.8768 3.10193ZM20.6276 12.3667L12.0008 20.967L3.37294 12.3393C2.31136 11.2775 1.72659 9.85389 1.72659 8.33102C1.72659 6.80814 2.31136 5.38455 3.37294 4.32269C4.4348 3.26111 5.86331 2.67635 7.39566 2.67635C8.90358 2.67635 10.335 3.26369 11.4253 4.32958C11.7631 4.66024 12.305 4.65733 12.6391 4.32269C13.701 3.26111 15.1243 2.67635 16.6475 2.67635C18.1706 2.67635 19.5939 3.26111 20.6486 4.31575C21.6964 5.38769 22.2734 6.81878 22.2734 8.34541C22.2734 9.85361 21.6863 11.2847 20.6276 12.3667Z" fill="#27231E"/>
</g>
</g>
<defs>
<clipPath id="clip0_105_237">
<rect width="24" height="24" fill="white"/>
</clipPath>
</defs>
</svg>
