<svg width="69" height="62" viewBox="0 0 69 62" fill="none" xmlns="http://www.w3.org/2000/svg">
<path id="Icon (Stroke)" fill-rule="evenodd" clip-rule="evenodd" d="M21.3526 4.06552C11.5204 4.06552 4.5396 13.5983 4.5396 22.8892C4.5396 27.453 6.29934 31.9272 9.11414 36.1505C11.9273 40.3713 15.7221 44.2305 19.5984 47.5185C23.4671 50.8001 27.3623 53.4665 30.3259 55.3119C31.8064 56.2337 33.0457 56.9452 33.9222 57.4214C34.1401 57.5398 34.3331 57.6424 34.5 57.7291C34.6669 57.6424 34.8599 57.5398 35.0778 57.4214C35.9543 56.9452 37.1936 56.2337 38.6741 55.3119C41.6377 53.4665 45.5329 50.8001 49.4016 47.5185C53.2779 44.2305 57.0727 40.3713 59.8859 36.1505C62.7007 31.9272 64.4604 27.453 64.4604 22.8892C64.4604 13.5983 57.4796 4.06552 47.6474 4.06552C41.9498 4.06552 38.2382 6.94277 36.0376 9.54267C35.6538 9.99606 35.0918 10.2573 34.5 10.2573C33.9082 10.2573 33.3462 9.99606 32.9624 9.54267C30.7618 6.94277 27.0502 4.06552 21.3526 4.06552ZM0.5 22.8892C0.5 12.0478 8.65653 0 21.3526 0C27.3733 0 31.6696 2.56998 34.5 5.27272C37.3304 2.56998 41.6267 0 47.6474 0C60.3435 0 68.5 12.0478 68.5 22.8892C68.5 28.5182 66.3333 33.7751 63.2406 38.4152C60.1464 43.0577 56.0526 47.1939 52.005 50.6272C47.9497 54.0669 43.8854 56.8477 40.7995 58.7692C39.2551 59.7308 37.9471 60.4826 36.9969 60.9989C36.5234 61.2562 36.129 61.4603 35.8325 61.6046C35.687 61.6755 35.5471 61.7408 35.4246 61.7926C35.3659 61.8174 35.286 61.85 35.1984 61.8799C35.1553 61.8946 35.0865 61.917 35.003 61.9377L35.002 61.938C34.9485 61.9513 34.7523 62 34.5 62C34.2477 62 34.0515 61.9513 33.998 61.938L33.997 61.9377C33.9135 61.917 33.8447 61.8946 33.8016 61.8799C33.714 61.85 33.6341 61.8174 33.5754 61.7926C33.4529 61.7408 33.313 61.6755 33.1675 61.6046C32.871 61.4603 32.4766 61.2562 32.0031 60.9989C31.0529 60.4826 29.7449 59.7308 28.2005 58.7692C25.1146 56.8477 21.0503 54.0669 16.995 50.6272C12.9474 47.1939 8.85363 43.0577 5.75937 38.4152C2.66672 33.7751 0.5 28.5182 0.5 22.8892Z" fill="url(#paint0_linear_547_14528)"/>
<defs>
<linearGradient id="paint0_linear_547_14528" x1="20.0544" y1="15.1897" x2="79.6803" y2="18.5863" gradientUnits="userSpaceOnUse">
<stop stop-color="#BFB09D"/>
<stop offset="1" stop-color="#BFB09D" stop-opacity="0"/>
</linearGradient>
</defs>
</svg>
