<svg width="20" height="20" viewBox="0 0 20 20" fill="none" xmlns="http://www.w3.org/2000/svg">
<g id="Ruler">
<g id="Union">
<path fill-rule="evenodd" clip-rule="evenodd" d="M13.538 4.92942C12.5927 4.92942 11.7079 5.12695 11.038 5.47451C10.3972 5.80694 9.79827 6.36956 9.79827 7.15134C9.79827 7.93312 10.3972 8.49574 11.038 8.82817C11.7079 9.17573 12.5927 9.37325 13.538 9.37325C14.4833 9.37325 15.3681 9.17573 16.038 8.82817C16.6788 8.49574 17.2777 7.93312 17.2777 7.15134C17.2777 6.36956 16.6788 5.80694 16.038 5.47451C15.3681 5.12695 14.4833 4.92942 13.538 4.92942ZM10.9692 7.15134C10.9692 7.02933 11.0763 6.77371 11.5772 6.51386C12.0489 6.26914 12.7412 6.10033 13.538 6.10033C14.3348 6.10033 15.0271 6.26914 15.4988 6.51386C15.9996 6.77371 16.1068 7.02933 16.1068 7.15134C16.1068 7.27335 15.9996 7.52896 15.4988 7.78881C15.0271 8.03354 14.3348 8.20234 13.538 8.20234C12.7412 8.20234 12.0489 8.03354 11.5772 7.78881C11.0763 7.52896 10.9692 7.27335 10.9692 7.15134Z" fill="#DAD1C6"/>
<path fill-rule="evenodd" clip-rule="evenodd" d="M20 7.1513C20 7.27757 19.9945 7.40305 19.9837 7.52753V12.4077C19.9837 15.4147 17.5463 17.8525 14.5393 17.8532C14.5386 17.8532 14.5379 17.8532 14.5372 17.8532C14.5365 17.8532 14.5358 17.8532 14.5351 17.8532H12.1975C12.1968 17.8532 12.1961 17.8532 12.1954 17.8532C12.1947 17.8532 12.194 17.8532 12.1933 17.8532H9.85565C9.85496 17.8532 9.85427 17.8532 9.85358 17.8532C9.85289 17.8532 9.8522 17.8532 9.85151 17.8532H7.51383C7.51314 17.8532 7.51245 17.8532 7.51176 17.8532C7.51107 17.8532 7.51038 17.8532 7.5097 17.8532H5.17202C5.17133 17.8532 5.17064 17.8532 5.16995 17.8532C5.16926 17.8532 5.16857 17.8532 5.16788 17.8532H0.589976C0.588469 17.8532 0.586962 17.8532 0.585454 17.8532C0.336396 17.8532 0.123662 17.6976 0.0390642 17.4784C0.0138333 17.413 0 17.342 0 17.2677V11.5697C0 11.5091 0.00921504 11.4506 0.0263208 11.3956C0.100446 11.1573 0.322742 10.9843 0.585454 10.9843H7.07595L7.07595 7.1513C7.07595 6.13451 7.42976 5.169 8.08624 4.36372C8.53934 3.80792 9.12118 3.34899 9.80557 2.99393C10.8854 2.43369 12.1778 2.14746 13.538 2.14746C14.8981 2.14746 16.1905 2.43369 17.2703 2.99393C17.9547 3.34898 18.5366 3.80791 18.9897 4.36371C19.6462 5.16896 20 6.13447 20 7.1513ZM10.3448 4.03327C11.2339 3.57201 12.3362 3.31837 13.538 3.31837C14.7397 3.31837 15.8421 3.57201 16.7311 4.03327C17.2898 4.32314 17.741 4.68517 18.0821 5.10357C18.5469 5.67363 18.7991 6.33397 18.8265 7.02458C18.8175 7.0654 18.8128 7.10781 18.8128 7.15134V7.47255C18.7496 8.09234 18.503 8.68269 18.0821 9.19902C17.741 9.61742 17.2898 9.97945 16.7311 10.2694C15.8421 10.7306 14.7397 10.9843 13.538 10.9843C12.3363 10.9843 11.2339 10.7306 10.3448 10.2694C9.78608 9.97949 9.33488 9.61746 8.9938 9.19904C8.50167 8.5954 8.24786 7.89051 8.24686 7.15567V7.15134L8.24686 7.1496C8.24725 6.41384 8.50105 5.70799 8.99379 5.10357C9.33487 4.68517 9.78609 4.32314 10.3448 4.03327ZM1.17091 12.2719V16.5655C1.88412 16.2766 2.45836 15.4742 2.45836 14.4187C2.45836 13.3632 1.88412 12.5608 1.17091 12.2719ZM2.8752 16.6823C3.35057 16.0655 3.62927 15.2628 3.62927 14.4187C3.62927 13.5746 3.35057 12.7719 2.87521 12.1552L13.5392 12.1552C14.8989 12.155 16.1909 11.8688 17.2703 11.3087C17.8687 10.9982 18.3887 10.6084 18.8128 10.1438V12.4077C18.8128 14.5702 17.2069 16.3576 15.1227 16.6426V14.4238C15.1227 14.1004 14.8605 13.8383 14.5372 13.8383C14.2139 13.8383 13.9518 14.1004 13.9518 14.4238V16.6823H12.7808V15.2044C12.7808 14.881 12.5187 14.6189 12.1954 14.6189C11.8721 14.6189 11.6099 14.881 11.6099 15.2044V16.6823H10.439V14.4238C10.439 14.1004 10.1769 13.8383 9.85358 13.8383C9.53024 13.8383 9.26812 14.1004 9.26812 14.4238V16.6823H8.09722V15.2044C8.09722 14.881 7.8351 14.6189 7.51176 14.6189C7.18843 14.6189 6.92631 14.881 6.92631 15.2044V16.6823H5.7554V14.4238C5.7554 14.1004 5.49329 13.8383 5.16995 13.8383C4.84661 13.8383 4.58449 14.1004 4.58449 14.4238V16.6823H2.8752ZM8.24686 10.1259C8.53812 10.4482 8.87525 10.7348 9.25248 10.9843H8.24686V10.1259Z" fill="#DAD1C6"/>
</g>
</g>
</svg>
