<svg width="921" height="679" viewBox="0 0 921 679" fill="none" xmlns="http://www.w3.org/2000/svg">
<path opacity="0.2" d="M268.574 408.425C273.932 424.52 287.533 437.065 307.66 445.935C327.788 454.806 354.39 459.977 385.636 461.346C448.124 464.084 529.075 451.609 613.666 423.256C698.256 394.903 770.427 356.053 818.73 316.18C842.883 296.242 861.048 276.065 871.821 256.837C882.595 237.61 885.952 219.381 880.594 203.285C875.236 187.19 861.634 174.645 841.507 165.775C821.38 156.904 794.777 151.733 763.531 150.364C701.043 147.627 620.092 160.101 535.502 188.454C450.912 216.808 378.741 255.657 330.437 295.531C306.284 315.468 288.12 335.645 277.346 354.873C266.573 374.1 263.216 392.33 268.574 408.425Z" stroke="#BFB09D"/>
<path d="M63.9389 572.049C72.5731 586.554 91.5673 594.058 118.774 595.041C145.955 596.022 181.184 590.485 222.053 579.08C303.783 556.274 407.956 510.036 515.189 445.764C622.423 381.493 712.382 311.376 771.141 249.979C800.523 219.278 822.083 190.778 834.108 166.298C846.144 141.795 848.564 121.456 839.93 106.951C831.295 92.4459 812.301 84.9415 785.094 83.9592C757.913 82.9778 722.685 88.5152 681.816 99.9196C600.086 122.726 495.913 168.964 388.679 233.236C281.446 297.507 191.487 367.624 132.728 429.021C103.346 459.722 81.7858 488.222 69.7609 512.702C57.7246 537.205 55.3046 557.544 63.9389 572.049Z" stroke="url(#paint0_linear_547_14538)"/>
<defs>
<linearGradient id="paint0_linear_547_14538" x1="584.573" y1="186.173" x2="-2.08051" y2="705.127" gradientUnits="userSpaceOnUse">
<stop stop-color="#BFB09D"/>
<stop offset="1" stop-color="#BFB09D" stop-opacity="0"/>
</linearGradient>
</defs>
</svg>
