<svg width="20" height="20" viewBox="0 0 20 20" fill="none" xmlns="http://www.w3.org/2000/svg">
<g id="phone">
<path id="Icon (Stroke)" fill-rule="evenodd" clip-rule="evenodd" d="M3.71801 1.66633C3.7466 1.66647 3.77447 1.66661 3.80152 1.66661H6.14927C6.17239 1.66661 6.19618 1.66651 6.22057 1.66641C6.47821 1.66533 6.80157 1.66397 7.0969 1.77736C7.35168 1.87519 7.57855 2.03409 7.75756 2.24011C7.96505 2.4789 8.07428 2.78326 8.16131 3.02577C8.16955 3.04871 8.17759 3.0711 8.18549 3.09284L9.15726 5.7652C9.1599 5.77248 9.16255 5.77977 9.1652 5.78705C9.22522 5.95205 9.28475 6.11569 9.32535 6.25992C9.37058 6.42063 9.40919 6.6121 9.39499 6.83047C9.37496 7.13825 9.26992 7.43444 9.09155 7.68607C8.96501 7.8646 8.81438 7.98896 8.67801 8.08526C8.5556 8.1717 8.40626 8.26128 8.25568 8.3516L7.75836 8.64999C8.59443 10.1546 9.84541 11.4066 11.3496 12.2418L11.6482 11.7441C11.7385 11.5935 11.8281 11.4442 11.9145 11.3218C12.0108 11.1854 12.1352 11.0348 12.3137 10.9082C12.5653 10.7299 12.8615 10.6248 13.1693 10.6048C13.3877 10.5906 13.5792 10.6292 13.7399 10.6744C13.8841 10.715 14.0478 10.7746 14.2128 10.8346L16.9069 11.8143C16.9287 11.8222 16.9511 11.8302 16.974 11.8385C17.2165 11.9255 17.5209 12.0347 17.7597 12.2422C17.9657 12.4212 18.1246 12.6481 18.2224 12.9029C18.3358 13.1982 18.3345 13.5216 18.3334 13.7792C18.3333 13.8036 18.3332 13.8274 18.3332 13.8505V16.1983C18.3332 16.2253 18.3333 16.2532 18.3335 16.2818C18.335 16.5894 18.337 16.9809 18.1677 17.3319C18.0264 17.625 17.7801 17.89 17.4981 18.0524C17.1612 18.2463 16.7923 18.2716 16.5072 18.291C16.4822 18.2928 16.4579 18.2944 16.4343 18.2961C16.0981 18.3208 15.7587 18.3333 15.4165 18.3333C7.82259 18.3333 1.6665 12.1772 1.6665 4.58328C1.6665 4.2411 1.67902 3.9017 1.70364 3.56552C1.70537 3.5419 1.70703 3.51755 1.70874 3.49256C1.72823 3.20746 1.75345 2.83854 1.94741 2.50167C2.10976 2.21968 2.37478 1.97336 2.66787 1.83203C3.01887 1.66278 3.41034 1.66476 3.71801 1.66633ZM3.39751 3.34089C3.39329 3.36761 3.38869 3.40535 3.38351 3.46186C3.37788 3.52332 3.37265 3.59443 3.36585 3.68724C3.3442 3.98295 3.33317 4.28175 3.33317 4.58328C3.33317 11.2567 8.74306 16.6666 15.4165 16.6666C15.718 16.6666 16.0168 16.6556 16.3125 16.6339C16.4054 16.6271 16.4765 16.6219 16.5379 16.6163C16.5944 16.6111 16.6322 16.6065 16.6589 16.6023C16.659 16.6013 16.6591 16.6002 16.6592 16.5992C16.6658 16.5211 16.6665 16.4122 16.6665 16.1983V13.8505C16.6665 13.6712 16.6661 13.5778 16.6615 13.5103C16.6613 13.5081 16.6612 13.5061 16.661 13.5041C16.6593 13.5033 16.6574 13.5025 16.6554 13.5016C16.5935 13.4742 16.5059 13.4419 16.3374 13.3806L13.665 12.4088C13.4695 12.3377 13.3653 12.3004 13.2883 12.2788C13.2856 12.278 13.2831 12.2773 13.2806 12.2766C13.2791 12.2787 13.2776 12.2809 13.276 12.2832C13.2298 12.3485 13.1724 12.4431 13.0654 12.6215L12.3811 13.762C12.1634 14.1249 11.7082 14.267 11.3227 14.0924C8.92986 13.0087 6.99245 11.0684 5.90763 8.67761C5.73268 8.29203 5.87468 7.83655 6.23776 7.6187L7.37828 6.93439C7.55669 6.82734 7.65129 6.76995 7.71663 6.72382C7.71892 6.7222 7.72109 6.72065 7.72315 6.71917C7.72248 6.71673 7.72177 6.71416 7.72101 6.71145C7.69934 6.63447 7.66203 6.5303 7.59093 6.33477L6.61916 3.66241C6.55789 3.49391 6.52555 3.40627 6.49819 3.34439C6.49731 3.34241 6.49647 3.34053 6.49566 3.33873C6.4937 3.33859 6.49164 3.33844 6.48948 3.33829C6.42198 3.33372 6.32856 3.33328 6.14927 3.33328H3.80152C3.5876 3.33328 3.47867 3.33397 3.40062 3.34062C3.39956 3.34071 3.39852 3.3408 3.39751 3.34089Z" fill="#D3D2D1"/>
</g>
</svg>
