<svg width="20" height="20" viewBox="0 0 20 20" fill="none" xmlns="http://www.w3.org/2000/svg">
<g id="icons8-phone 2">
<path id="Vector" d="M16.0182 12.7078L13.9182 12.4661C13.4098 12.4078 12.9098 12.5828 12.5515 12.9411L11.0098 14.4828C9.82733 13.8828 8.75483 13.1003 7.82817 12.1728C6.90067 11.2461 6.11817 10.1736 5.51817 8.99115L7.05983 7.44948C7.41817 7.09115 7.59317 6.59115 7.53483 6.08281L7.29317 3.98281C7.19317 3.14115 6.48483 2.50781 5.63483 2.50781H4.19317C3.2515 2.50781 2.46817 3.29115 2.5265 4.23281C2.74733 7.79031 4.27983 10.9895 6.64567 13.3553C9.0115 15.7211 12.2107 17.2536 15.7682 17.4745C16.7098 17.5328 17.4932 16.7495 17.4932 15.8078V14.3661C17.4932 13.5161 16.8598 12.8078 16.0182 12.7078Z" fill="#A6A5A3"/>
</g>
</svg>
