<svg width="20" height="20" viewBox="0 0 20 20" fill="none" xmlns="http://www.w3.org/2000/svg">
<g id="pin">
<g id="Union">
<path d="M10 6.37739C8.87033 6.37739 7.95455 7.29563 7.95455 8.42834C7.95455 9.56105 8.87033 10.4793 10 10.4793C11.1297 10.4793 12.0455 9.56105 12.0455 8.42834C12.0455 7.29563 11.1297 6.37739 10 6.37739Z" fill="#D3D2D1"/>
<path fill-rule="evenodd" clip-rule="evenodd" d="M4.64671 13.7491C1.78443 10.9282 1.78443 6.35472 4.64671 3.53385L4.81738 3.36565C7.67966 0.544784 12.3203 0.544784 15.1826 3.36565L15.3533 3.53385C18.2156 6.35472 18.2156 10.9282 15.3533 13.7491L10.4779 18.5539C10.2127 18.8154 9.78734 18.8154 9.52206 18.5539L4.64671 13.7491ZM6.08053 4.99656L6.2512 4.82835C8.31764 2.79182 11.6824 2.79182 13.7488 4.82835L13.9195 4.99656C15.9662 7.01371 15.9662 10.2693 13.9195 12.2864L10 16.1492L6.08053 12.2864C4.03376 10.2693 4.03377 7.01371 6.08053 4.99656Z" fill="#D3D2D1"/>
</g>
</g>
</svg>
