<svg width="20" height="20" viewBox="0 0 20 20" fill="none" xmlns="http://www.w3.org/2000/svg">
<g id="icons8-location 2">
<path id="Vector" d="M10.0013 1.33398C5.9513 1.33398 2.66797 4.61732 2.66797 8.66732C2.66797 13.49 7.43597 15.7987 8.0333 16.336C8.6433 16.8847 9.1473 18.1146 9.35064 18.812C9.4493 19.1507 9.72664 19.322 10.0013 19.3293C10.2766 19.3213 10.5533 19.15 10.652 18.812C10.8553 18.1146 11.3593 16.8853 11.9693 16.336C12.5666 15.7987 17.3346 13.49 17.3346 8.66732C17.3346 4.61732 14.0513 1.33398 10.0013 1.33398ZM10.0013 10.6673C8.89664 10.6673 8.0013 9.77198 8.0013 8.66732C8.0013 7.56265 8.89664 6.66732 10.0013 6.66732C11.106 6.66732 12.0013 7.56265 12.0013 8.66732C12.0013 9.77198 11.106 10.6673 10.0013 10.6673Z" fill="#A6A5A3"/>
</g>
</svg>
