<svg width="33" height="33" viewBox="0 0 33 33" fill="none" xmlns="http://www.w3.org/2000/svg">
<g id="Frame" clip-path="url(#clip0_207_922)">
<g id="Group">
<path id="Vector" d="M30.996 20.805C30.7053 20.6982 30.3959 20.6516 30.0867 20.6681C29.7774 20.6845 29.4747 20.7637 29.197 20.9007L25.0427 22.9168C24.7998 23.6116 24.3473 24.2138 23.7475 24.6404C23.1478 25.067 22.4305 25.2969 21.6945 25.2985H17.4245C17.255 25.2978 17.0926 25.2302 16.9728 25.1102C16.8531 24.9903 16.7856 24.8279 16.7852 24.6584C16.7852 24.3064 17.0725 24.0183 17.4253 24.0183H22.2899C24.0059 23.9927 24.5247 21.6494 23.0394 20.7922C22.6194 20.5478 22.1421 20.4194 21.6562 20.4203H16.4779L15.5177 19.6333C13.8149 18.223 11.6733 17.451 9.46227 17.4504H6.68316C6.68955 17.4823 6.68955 17.5206 6.68955 17.5526V27.8717C6.68955 27.993 6.68316 28.1087 6.66401 28.2236H7.32327L13.8201 30.3227C17.0186 31.1865 20.4263 30.7953 23.3459 29.2293L31.2897 24.9912C32.3393 24.4341 32.7878 23.1347 32.3073 22.0405C32.1838 21.7564 32.0037 21.5003 31.7782 21.2879C31.5526 21.0755 31.287 20.9112 30.996 20.805ZM4.06527 16.2149H1.83847C1.48382 16.2155 1.14386 16.3566 0.89301 16.6073C0.642157 16.858 0.500844 17.1979 0.5 17.5526V27.8717C0.5 28.6139 1.10179 29.2157 1.83768 29.2157H4.06527C4.80754 29.2157 5.41013 28.6139 5.41013 27.8717V17.5526C5.41013 16.8167 4.80834 16.2149 4.06527 16.2149ZM23.7146 9.79946C24.7185 9.79798 25.6807 9.39815 26.39 8.68778C27.0994 7.97742 27.4978 7.01458 27.4978 6.0107C27.4978 3.92517 25.8001 2.22754 23.7146 2.22754C21.6291 2.22754 19.9314 3.92517 19.9314 6.0107C19.9314 7.01458 20.3298 7.97742 21.0392 8.68778C21.7485 9.39815 22.7107 9.79798 23.7146 9.79946ZM16.9416 15.831C16.9414 15.9151 16.9578 15.9984 16.9899 16.0762C17.022 16.1539 17.0691 16.2246 17.1286 16.2841C17.1881 16.3435 17.2587 16.3907 17.3365 16.4228C17.4143 16.4549 17.4976 16.4713 17.5817 16.4711H29.8467C29.9308 16.4713 30.0141 16.4549 30.0919 16.4228C30.1696 16.3907 30.2403 16.3435 30.2998 16.2841C30.3592 16.2246 30.4064 16.1539 30.4385 16.0762C30.4706 15.9984 30.487 15.9151 30.4868 15.831C30.4868 13.2769 29.0661 11.0422 26.967 9.89044C26.089 10.6327 24.9501 11.0813 23.7146 11.0813C22.4791 11.0813 21.3393 10.6327 20.4622 9.89044C19.3969 10.4742 18.5081 11.3336 17.8889 12.3787C17.2696 13.4239 16.9427 14.6162 16.9424 15.831H16.9416Z" fill="#BFB09D"/>
</g>
</g>
<defs>
<clipPath id="clip0_207_922">
<rect width="32" height="32" fill="white" transform="translate(0.5 0.5)"/>
</clipPath>
</defs>
</svg>
