<svg width="33" height="33" viewBox="0 0 33 33" fill="none" xmlns="http://www.w3.org/2000/svg">
<g id="Frame" clip-path="url(#clip0_207_899)">
<g id="Group">
<g id="Group_2">
<path id="Vector" d="M6.46369 12.99C8.43892 12.0584 10.6031 11.5972 12.7866 11.6426C14.97 11.5969 17.134 12.0586 19.1094 12.99C19.9986 12.4117 20.5008 11.7329 20.5008 11.0711C20.5008 9.41401 17.4008 7.64258 12.7866 7.64258C8.17227 7.64258 5.07227 9.41401 5.07227 11.0711C5.07227 11.7329 5.57455 12.4117 6.46369 12.99ZM31.9294 19.6426H26.7866V20.8146C27.9197 20.7912 29.0723 21.9152 29.0723 23.9283C29.0985 24.8749 28.7554 25.7946 28.1157 26.4929C27.7622 26.8485 27.2876 27.0577 26.7866 27.0786V28.214H31.9294C32.081 28.214 32.2263 28.1538 32.3335 28.0466C32.4406 27.9395 32.5008 27.7941 32.5008 27.6426V20.214C32.5008 20.0625 32.4406 19.9171 32.3335 19.8099C32.2263 19.7028 32.081 19.6426 31.9294 19.6426ZM31.358 24.7854C31.358 24.937 31.2978 25.0823 31.1906 25.1895C31.0835 25.2967 30.9381 25.3569 30.7866 25.3569C30.635 25.3569 30.4897 25.2967 30.3825 25.1895C30.2753 25.0823 30.2151 24.937 30.2151 24.7854V23.0711C30.2151 22.9196 30.2753 22.7743 30.3825 22.6671C30.4897 22.5599 30.635 22.4997 30.7866 22.4997C30.9381 22.4997 31.0835 22.5599 31.1906 22.6671C31.2978 22.7743 31.358 22.9196 31.358 23.0711V24.7854Z" fill="#BFB09D"/>
<path id="Vector_2" d="M12.7857 18.4999C19.56 18.4999 25.0714 15.4239 25.0714 11.6428C25.0714 7.86164 19.56 4.78564 12.7857 4.78564C6.01143 4.78564 0.5 7.86164 0.5 11.6428C0.5 15.4239 6.01143 18.4999 12.7857 18.4999ZM12.7857 6.49993C17.752 6.49993 21.6429 8.50793 21.6429 11.0714C21.6429 12.2411 20.8263 13.2925 19.4714 14.0931C19.4305 14.1242 19.3855 14.1496 19.3377 14.1685C17.3105 15.1976 15.0584 15.7044 12.7857 15.6428C10.4891 15.7079 8.21429 15.1891 6.17257 14.1354C6.14259 14.1216 6.11391 14.1051 6.08686 14.0862C4.74057 13.2868 3.92857 12.2376 3.92857 11.0714C3.92857 8.50793 7.81943 6.49993 12.7857 6.49993Z" fill="#BFB09D"/>
<path id="Vector_3" d="M27.3114 25.6804C27.7316 25.1956 27.9521 24.5695 27.9286 23.9284C27.9286 22.7073 27.3354 21.9404 26.7857 21.9284C26.4865 21.9312 26.1984 21.8154 25.9842 21.6064C25.7701 21.3974 25.6474 21.1122 25.6429 20.813V19.6427H12.7857C7.30629 19.6427 2.58571 17.6764 0.5 14.8667V21.357C0.5 22.821 1.35714 24.1827 2.78571 25.3038V23.0713C2.78571 22.9197 2.84592 22.7744 2.95308 22.6672C3.06025 22.56 3.20559 22.4998 3.35714 22.4998C3.5087 22.4998 3.65404 22.56 3.7612 22.6672C3.86837 22.7744 3.92857 22.9197 3.92857 23.0713V26.0804C4.47913 26.3988 5.05206 26.6769 5.64286 26.9124V25.9284C5.64286 25.7769 5.70306 25.6315 5.81023 25.5244C5.91739 25.4172 6.06273 25.357 6.21429 25.357C6.36584 25.357 6.51118 25.4172 6.61835 25.5244C6.72551 25.6315 6.78571 25.7769 6.78571 25.9284V27.3267C7.33143 27.4981 7.908 27.6421 8.5 27.7673V25.357C8.5 25.2054 8.5602 25.0601 8.66737 24.9529C8.77453 24.8458 8.91988 24.7856 9.07143 24.7856C9.22298 24.7856 9.36833 24.8458 9.47549 24.9529C9.58265 25.0601 9.64286 25.2054 9.64286 25.357V27.9724C10.4006 28.085 11.1629 28.1553 11.9286 28.185V27.0713C11.9286 26.9197 11.9888 26.7744 12.0959 26.6672C12.2031 26.56 12.3484 26.4998 12.5 26.4998C12.6516 26.4998 12.7969 26.56 12.9041 26.6672C13.0112 26.7744 13.0714 26.9197 13.0714 27.0713V28.209H15.3571V25.9284C15.3571 25.7769 15.4173 25.6315 15.5245 25.5244C15.6317 25.4172 15.777 25.357 15.9286 25.357C16.0801 25.357 16.2255 25.4172 16.3326 25.5244C16.4398 25.6315 16.5 25.7769 16.5 25.9284V28.2096H18.7857V27.0713C18.7857 26.9197 18.8459 26.7744 18.9531 26.6672C19.0602 26.56 19.2056 26.4998 19.3571 26.4998C19.5087 26.4998 19.654 26.56 19.7612 26.6672C19.8684 26.7744 19.9286 26.9197 19.9286 27.0713V28.2107H22.2143V25.9284C22.2143 25.7769 22.2745 25.6315 22.3817 25.5244C22.4888 25.4172 22.6342 25.357 22.7857 25.357C22.9373 25.357 23.0826 25.4172 23.1898 25.5244C23.2969 25.6315 23.3571 25.7769 23.3571 25.9284V28.2141H25.6429V27.0216C25.6424 26.8805 25.67 26.7408 25.7241 26.6106C25.7783 26.4804 25.8579 26.3623 25.9583 26.2633C26.1834 26.0547 26.4783 25.9376 26.7857 25.9358C26.9886 25.9267 27.1789 25.8347 27.3114 25.6804ZM25.0714 18.4998V14.8667C23.6674 16.5715 21.7999 17.8334 19.6943 18.4998H25.0714Z" fill="#BFB09D"/>
</g>
</g>
</g>
<defs>
<clipPath id="clip0_207_899">
<rect width="32" height="32" fill="white" transform="translate(0.5 0.5)"/>
</clipPath>
</defs>
</svg>
