<svg width="33" height="33" viewBox="0 0 33 33" fill="none" xmlns="http://www.w3.org/2000/svg">
<g id="Frame" clip-path="url(#clip0_220_756)">
<g id="Group">
<path id="Vector" d="M30.4146 12.24C30.3969 12.2532 30.3801 12.2675 30.3643 12.2829C28.9118 13.5794 27.0179 14.2706 25.0717 14.2143C21.8369 14.2143 18.594 12.512 17.3517 11.7823C21.8357 6.40343 29.1751 4.60743 31.978 4.1C32.3271 5.06343 32.5037 6.08114 32.5003 7.10629C32.5242 8.0594 32.3513 9.00721 31.9925 9.89052C31.6336 10.7738 31.0965 11.5736 30.4146 12.24ZM21.6037 31.0909C20.1929 28.0543 19.3574 25.6103 19.3574 24.5C19.3574 23.4177 20.4883 19.896 22.3894 15.0423C23.2695 15.2442 24.1688 15.3498 25.0717 15.3571C25.4514 15.355 25.8306 15.3317 26.2077 15.2874C24.8311 18.8429 23.3574 23.0006 23.3574 24.5C23.3574 25.5406 23.8717 27.2811 24.8694 29.6617C23.7943 30.1683 22.7053 30.6448 21.6037 31.0909ZM23.6746 2.69086C25.3346 1.58571 27.182 0.557143 29.4546 0.5C30.2979 1.19758 30.9941 2.05595 31.5026 3.02514C28.7626 3.54857 22.7197 5.11771 18.1883 9.26171C19.4186 6.63385 21.3087 4.3696 23.6746 2.68971V2.69086ZM3.546 0.5C5.81857 0.557143 7.666 1.58057 9.326 2.68743C11.693 4.36799 13.5842 6.63323 14.8151 9.26229C10.2809 5.11771 4.23743 3.548 1.50086 3.02514C2.00849 2.05621 2.70368 1.19786 3.546 0.5ZM1.02257 4.1C3.826 4.60686 11.1649 6.40229 15.6511 11.7811C14.4089 12.5126 11.1711 14.2143 7.92886 14.2143C5.9848 14.2702 4.09294 13.5807 2.64086 12.2869C2.62281 12.2699 2.60372 12.254 2.58372 12.2394C1.90224 11.573 1.3655 10.7732 1.00703 9.88999C0.648559 9.00679 0.476053 8.05916 0.500288 7.10629C0.496424 6.08129 0.673223 5.06363 1.02257 4.1ZM8.13115 29.66C9.12886 27.2811 9.64315 25.5406 9.64315 24.5C9.64315 22.9994 8.16943 18.8429 6.79229 15.2874C7.16943 15.3314 7.54886 15.3549 7.92886 15.3571C8.83173 15.3498 9.73112 15.2442 10.6111 15.0423C12.5123 19.896 13.6431 23.4177 13.6431 24.5C13.6431 25.6103 12.8077 28.0543 11.3969 31.0909C10.2953 30.6445 9.2063 30.1678 8.13115 29.6611V29.66ZM6.786 24.5C6.73814 23.6378 6.48502 22.7995 6.04772 22.0549C5.6864 21.2854 5.3474 20.5056 5.03115 19.7166C4.466 18.3023 3.76486 15.9057 3.27572 14.1434C3.9622 14.545 4.70132 14.8488 5.47172 15.0463C7.36943 19.8926 8.50029 23.4183 8.50029 24.5C8.50029 25.3571 8.00143 27.0091 7.09857 29.1691C6.57115 28.9137 6.10486 28.6811 5.73172 28.4926C5.69483 28.4728 5.66274 28.4452 5.63771 28.4116C5.61268 28.3781 5.59533 28.3394 5.58688 28.2984C5.57843 28.2575 5.57909 28.2151 5.58882 28.1744C5.59854 28.1337 5.61708 28.0956 5.64315 28.0629C6.4225 27.042 6.82612 25.7837 6.786 24.5ZM12.4654 31.5029C13.434 29.4143 14.786 26.1903 14.786 24.5C14.786 22.9303 13.174 18.456 11.726 14.7537C13.4014 14.2413 15.0055 13.5196 16.5003 12.6057C17.9951 13.5196 19.5992 14.2413 21.2746 14.7537C19.8266 18.456 18.2146 22.9303 18.2146 24.5C18.2146 26.1903 19.5666 29.4114 20.5351 31.5029C19.25 32.0424 17.8888 32.3788 16.5003 32.5C15.1118 32.3786 13.7506 32.0422 12.4654 31.5029ZM26.9529 22.0549C26.5156 22.7995 26.2624 23.6378 26.2146 24.5C26.1746 25.7839 26.5782 27.0423 27.3574 28.0634C27.3833 28.0963 27.4016 28.1345 27.4111 28.1752C27.4206 28.216 27.4211 28.2583 27.4124 28.2993C27.4037 28.3402 27.3862 28.3787 27.361 28.4121C27.3358 28.4455 27.3036 28.473 27.2666 28.4926C26.8131 28.7223 26.3577 28.948 25.9003 29.1697C24.9991 27.0091 24.5003 25.3571 24.5003 24.5C24.5003 23.4189 25.6306 19.8937 27.5289 15.0463C28.2993 14.8488 29.0386 14.5451 29.7254 14.144C29.2363 15.9051 28.5357 18.3006 27.97 19.716C27.6537 20.5053 27.3145 21.2853 26.9529 22.0549Z" fill="#BFB09D"/>
</g>
</g>
<defs>
<clipPath id="clip0_220_756">
<rect width="32" height="32" fill="white" transform="translate(0.5 0.5)"/>
</clipPath>
</defs>
</svg>
