<svg width="33" height="33" viewBox="0 0 33 33" fill="none" xmlns="http://www.w3.org/2000/svg">
<g id="Frame" clip-path="url(#clip0_207_910)">
<g id="Group">
<path id="Vector" d="M21.9933 3.07181L7.472 10.5065L1.7 7.66647L15.9653 0.622472C16.1269 0.542239 16.3049 0.500488 16.4853 0.500488C16.6658 0.500488 16.8437 0.542239 17.0053 0.622472L21.9933 3.07181ZM31.284 7.66647L16.508 14.9865L10.9747 12.2598L10.1747 11.8531L24.712 4.41981L25.512 4.82514L31.284 7.66647ZM15.324 17.0958L15.308 32.4998L1.156 25.1145C0.958417 25.0095 0.793041 24.8528 0.67751 24.6612C0.561979 24.4696 0.500628 24.2502 0.5 24.0265L0.5 9.77581L6.49733 12.7305V17.9251C6.49733 18.5905 7.04133 19.1425 7.69733 19.1425C8.35333 19.1425 8.89733 18.5905 8.89733 17.9251V13.9318L9.69733 14.3211L15.324 17.0958ZM32.484 9.79181L17.724 17.0798L17.708 32.4838L32.5 24.7598L32.484 9.79181Z" fill="#BFB09D"/>
</g>
</g>
<defs>
<clipPath id="clip0_207_910">
<rect width="32" height="32" fill="white" transform="translate(0.5 0.5)"/>
</clipPath>
</defs>
</svg>
