<svg width="24" height="24" viewBox="0 0 24 24" fill="none" xmlns="http://www.w3.org/2000/svg">
<g id="Frame" clip-path="url(#clip0_46_274)">
<g id="Group">
<path id="Vector" d="M17.4826 16.4016L23.3521 22.1773L17.4826 16.4016ZM17.4826 16.4016C19.0151 14.7034 19.9543 12.4735 19.9543 10.0228C19.9536 4.70635 15.5751 0.399878 10.1769 0.399878C4.77865 0.399878 0.400122 4.70635 0.400122 10.0228C0.400122 15.3392 4.77865 19.6456 10.1769 19.6456C12.4774 19.6456 14.5904 18.8608 16.2604 17.5522L22.1587 23.3567C22.4881 23.6812 23.0222 23.6812 23.3516 23.3567C23.4301 23.28 23.4925 23.1884 23.5351 23.0873C23.5778 22.986 23.5998 22.8772 23.5999 22.7673C23.5999 22.6574 23.5781 22.5486 23.5355 22.4473C23.493 22.3461 23.4307 22.2544 23.3522 22.1775L17.4826 16.4016ZM10.1769 17.9805C5.70854 17.9805 2.08902 14.4162 2.08902 10.0228C2.08902 5.62932 5.70854 2.06503 10.1769 2.06503C14.6452 2.06503 18.2647 5.62932 18.2647 10.0228C18.2647 14.4162 14.6452 17.9805 10.1769 17.9805Z" fill="#27231E" stroke="#27231E" stroke-width="0.2"/>
</g>
</g>
<defs>
<clipPath id="clip0_46_274">
<rect width="24" height="24" fill="white"/>
</clipPath>
</defs>
</svg>
