<svg width="20" height="20" viewBox="0 0 20 20" fill="none" xmlns="http://www.w3.org/2000/svg">
<g id="Frame" clip-path="url(#clip0_995_22585)">
<g id="Group">
<path id="Vector" d="M19.471 18.4696L14.5911 13.6678C15.8645 12.2512 16.6445 10.3937 16.6445 8.35272C16.6439 3.91293 12.9874 0.316992 8.47996 0.316992C3.9725 0.316992 0.316016 3.91293 0.316016 8.35272C0.316016 12.7925 3.9725 16.3885 8.47996 16.3885C10.3957 16.3885 12.1556 15.7367 13.5483 14.6494L18.4532 19.4762C18.7342 19.753 19.1896 19.753 19.4706 19.4762C19.5376 19.4108 19.5908 19.3326 19.6272 19.2463C19.6636 19.1599 19.6824 19.067 19.6825 18.9732C19.6825 18.8794 19.6639 18.7866 19.6275 18.7001C19.5912 18.6136 19.538 18.5353 19.471 18.4696ZM8.47996 14.9675C4.76532 14.9675 1.75677 12.0045 1.75677 8.35272C1.75677 4.70098 4.76532 1.73795 8.47996 1.73795C12.1946 1.73795 15.2032 4.70098 15.2032 8.35272C15.2032 12.0045 12.1946 14.9675 8.47996 14.9675Z" fill="#827F7D" stroke="#827F7D" stroke-width="0.2"/>
</g>
</g>
<defs>
<clipPath id="clip0_995_22585">
<rect width="20" height="20" fill="white"/>
</clipPath>
</defs>
</svg>
