<svg width="24" height="24" viewBox="0 0 24 24" fill="none" xmlns="http://www.w3.org/2000/svg">
<g id="Group 81">
<circle id="Ellipse 24" cx="12" cy="12" r="12" fill="#CBBDAE"/>
<path id="Vector" d="M16.1906 7.09596C16.1906 7.09596 17.299 6.66375 17.2066 7.71341C17.1758 8.14563 16.8987 9.65837 16.6832 11.2946L15.9443 16.1416C15.9443 16.1416 15.8827 16.8516 15.3285 16.9751C14.7742 17.0986 13.9429 16.5429 13.789 16.4194C13.6658 16.3268 11.4797 14.9376 10.71 14.2584C10.4944 14.0731 10.2481 13.7027 10.7408 13.2704L13.9737 10.1832C14.3432 9.81274 14.7127 8.94832 13.1732 9.99798L8.86259 12.9309C8.86259 12.9309 8.36995 13.2396 7.44627 12.9617L5.44492 12.3443C5.44492 12.3443 4.70597 11.8812 5.96835 11.4181C9.04734 9.96708 12.8345 8.48521 16.1906 7.09596Z" fill="#FFFEFD"/>
</g>
</svg>
