<svg width="40" height="40" viewBox="0 0 40 40" fill="none" xmlns="http://www.w3.org/2000/svg">
<g id="Frame">
<g id="Group">
<path id="Vector" d="M19.8681 8.35482C19.7112 8.39481 19.5758 8.49404 19.4905 8.63169C19.4051 8.76933 19.3764 8.93468 19.4104 9.09303C19.4444 9.25138 19.5384 9.39042 19.6727 9.48095C19.8069 9.57148 19.9711 9.60647 20.1306 9.57858C21.089 9.37308 22.0667 9.27062 23.0469 9.27295C31.9737 8.90607 38.6706 18.3873 35.4387 26.6292C32.5281 30.3767 28.8806 32.3629 24.59 32.5379C24.5856 32.1704 24.6737 31.5861 24.2587 31.3948C24.1582 31.3427 24.0457 31.3182 23.9327 31.3237C23.8196 31.3292 23.71 31.3645 23.615 31.4261L19.9369 33.8805C19.8527 33.9383 19.7838 34.0157 19.7363 34.1061C19.6887 34.1965 19.6639 34.2971 19.6639 34.3992C19.6639 34.5013 19.6887 34.6019 19.7363 34.6923C19.7838 34.7827 19.8527 34.8601 19.9369 34.9179C19.9575 34.893 24.0706 37.7867 23.965 37.478C24.1302 37.4763 24.2883 37.41 24.4051 37.2931C24.522 37.1762 24.5884 37.0182 24.59 36.853V36.2354C31.86 35.9042 37.4681 29.8336 37.4681 22.1386C37.5812 12.9936 28.6431 6.28107 19.8681 8.35482Z" fill="#C0B09D"/>
<path id="Vector_2" d="M19.8679 30.401C18.8089 30.6257 17.7277 30.7285 16.6454 30.7072C7.84036 30.8679 1.37661 21.471 4.55973 13.351C7.47036 9.60286 11.1179 7.61724 15.4085 7.44224V8.02974C15.4101 8.14257 15.4418 8.25293 15.5003 8.34939C15.5589 8.44585 15.6421 8.52491 15.7415 8.57838C15.8409 8.63186 15.9527 8.65781 16.0655 8.65354C16.1782 8.64927 16.2878 8.61495 16.3829 8.55411L20.0616 6.09912C20.1455 6.04124 20.2141 5.96385 20.2615 5.8736C20.3089 5.78335 20.3337 5.68293 20.3337 5.58099C20.3337 5.47905 20.3089 5.37863 20.2615 5.28838C20.2141 5.19813 20.1455 5.12074 20.0616 5.06287L16.3829 2.60786C16.2891 2.54334 16.1791 2.50624 16.0654 2.50072C15.9517 2.4952 15.8387 2.52148 15.7391 2.57662C15.3166 2.74787 15.4147 3.40162 15.4085 3.74474C8.13848 4.07599 2.53036 10.1466 2.53036 17.841C2.41723 26.9866 11.3547 33.6985 20.1304 31.6254C20.2896 31.5875 20.4278 31.4888 20.5152 31.3504C20.6026 31.212 20.6323 31.0449 20.598 30.8848C20.5637 30.7247 20.468 30.5844 20.3316 30.494C20.1951 30.4036 20.0286 30.3702 19.8679 30.401Z" fill="#C0B09D"/>
<path id="Vector_3" d="M12.6544 14.5241L19.9994 18.1966L27.3444 14.5241L19.9994 10.8516L12.6544 14.5241ZM28.6181 15.2859L21.055 19.0647L22.31 20.3197L29.8737 16.5416L28.6181 15.2859ZM18.9437 19.0647L11.3806 15.2859L10.125 16.5416L17.6881 20.3197L18.9437 19.0647Z" fill="#C0B09D"/>
<path id="Vector_4" d="M19.3733 20.4027L18.2558 21.5277C18.1613 21.6189 18.0408 21.6786 17.911 21.6986C17.7812 21.7186 17.6484 21.698 17.5308 21.6395L11.8789 18.8164V25.0683L19.3739 28.8158L19.3733 20.4027ZM21.7408 21.527L20.6227 20.4027V28.8158L28.1177 25.0683V18.8164L22.4652 21.6395C22.3479 21.6997 22.2146 21.7212 22.0844 21.701C21.9542 21.6808 21.8343 21.6199 21.7408 21.527Z" fill="#C0B09D"/>
</g>
</g>
</svg>
