<svg width="40" height="40" viewBox="0 0 40 40" fill="none" xmlns="http://www.w3.org/2000/svg">
<g id="Frame">
<g id="Group">
<path id="Vector" d="M26.6113 18.1791H25.339C25.204 18.1791 25.0746 18.1255 24.9791 18.0301C24.8837 17.9346 24.83 17.8052 24.83 17.6702V15.6055L19.0898 19.7059L24.83 23.8063V21.7416C24.83 21.6066 24.8837 21.4772 24.9791 21.3818C25.0746 21.2863 25.204 21.2327 25.339 21.2327H25.5934C29.3819 21.2327 32.464 24.3148 32.464 28.1032C32.464 29.9959 31.695 31.712 30.4527 32.9559C32.8655 31.6052 34.4997 29.0239 34.4997 26.0675C34.4997 21.7177 30.9611 18.1791 26.6113 18.1791Z" fill="#C0B09D"/>
<path id="Vector_2" d="M29.4107 23.6707C28.4167 22.8111 27.1612 22.3127 25.8482 22.2564V24.7955C25.848 24.8889 25.8222 24.9805 25.7735 25.0602C25.7247 25.1399 25.655 25.2047 25.572 25.2475C25.4889 25.2902 25.3957 25.3093 25.3025 25.3027C25.2093 25.296 25.1197 25.2639 25.0436 25.2097L17.9186 20.1205C17.8527 20.0734 17.799 20.0112 17.762 19.9392C17.725 19.8672 17.7056 19.7874 17.7056 19.7064C17.7056 19.6255 17.725 19.5457 17.762 19.4737C17.799 19.4017 17.8527 19.3395 17.9186 19.2924L25.0436 14.2031C25.1196 14.1487 25.2092 14.1162 25.3025 14.1093C25.3958 14.1025 25.4891 14.1215 25.5723 14.1642C25.6555 14.207 25.7252 14.2719 25.7739 14.3518C25.8226 14.4316 25.8483 14.5234 25.8482 14.6169V17.1616H26.6116C27.5903 17.1616 28.5293 17.3259 29.4107 17.6191V12.0723H19.7411V15.6348C19.7411 15.7697 19.6875 15.8992 19.592 15.9946C19.4966 16.0901 19.3671 16.1437 19.2321 16.1437H16.1786C16.0436 16.1437 15.9141 16.0901 15.8187 15.9946C15.7233 15.8992 15.6696 15.7697 15.6696 15.6348V12.0723H6V30.3937H29.4107V23.6707ZM13.125 29.3758H7.01786V28.358H13.125V29.3758ZM13.125 27.3401H7.01786V26.3223H13.125V27.3401Z" fill="#C0B09D"/>
<path id="Vector_3" d="M16.6866 11.7732V15.125H18.7223V11.7732L22.0741 8H20.4598L16.6866 11.7732ZM9.77232 8L6.71875 11.0536H15.967L19.0206 8H9.77232Z" fill="#C0B09D"/>
<path id="Vector_4" d="M20.459 11.0536H29.7072L32.7608 8H23.5126L20.459 11.0536ZM33.4804 18.942V8.71962L30.4269 11.7732V17.4152L33.4804 18.942Z" fill="#C0B09D"/>
</g>
</g>
</svg>
