<svg width="24" height="24" viewBox="0 0 24 24" fill="none" xmlns="http://www.w3.org/2000/svg">
<circle cx="12" cy="12" r="12" fill="#CBBDAE"/>
<path d="M16.6171 12.6C16.3908 12.3142 16.4555 12.187 16.6171 11.9315C16.62 11.9286 18.4884 9.34674 18.6809 8.47116L18.6821 8.47058C18.7778 8.15149 18.6821 7.91699 18.2195 7.91699H16.6888C16.2992 7.91699 16.1195 8.11824 16.0233 8.34341C16.0233 8.34341 15.2439 10.2089 14.1414 11.4182C13.7856 11.7676 13.6211 11.8796 13.4268 11.8796C13.3312 11.8796 13.1824 11.7676 13.1824 11.4485V8.47058C13.1824 8.08791 13.0733 7.91699 12.7508 7.91699H10.3439C10.0995 7.91699 9.95425 8.09549 9.95425 8.26174C9.95425 8.62458 10.5055 8.70799 10.5627 9.72883V11.9437C10.5627 12.4291 10.4746 12.5183 10.2792 12.5183C9.75883 12.5183 8.49592 10.6452 7.7475 8.50149C7.59642 8.08558 7.44883 7.91758 7.05625 7.91758H5.525C5.08808 7.91758 5 8.11883 5 8.34399C5 8.74183 5.52033 10.7199 7.41967 13.3332C8.6855 15.1171 10.4682 16.0837 12.0898 16.0837C13.0646 16.0837 13.1836 15.869 13.1836 15.4997C13.1836 13.7952 13.0955 13.6342 13.5838 13.6342C13.8101 13.6342 14.1997 13.7462 15.1098 14.6067C16.1498 15.6269 16.3208 16.0837 16.9029 16.0837H18.4336C18.8699 16.0837 19.091 15.869 18.9638 15.4455C18.6728 14.5547 16.7058 12.7225 16.6171 12.6Z" fill="#FFFEFD"/>
</svg>
