<svg width="20" height="20" viewBox="0 0 20 20" fill="none" xmlns="http://www.w3.org/2000/svg">
<g id="Group">
<path id="Vector" d="M14.5893 11.9218L14.5818 11.9843C12.7493 11.071 12.5576 10.9493 12.3209 11.3043C12.1568 11.5502 11.6784 12.1077 11.5343 12.2727C11.3884 12.4352 11.2434 12.4477 10.9959 12.3352C10.7459 12.2102 9.94345 11.9477 8.99345 11.0977C8.25345 10.4352 7.75678 9.62266 7.61011 9.37266C7.36595 8.95099 7.87678 8.89099 8.34178 8.01099C8.42511 7.83599 8.38261 7.69849 8.32095 7.57433C8.25845 7.44933 7.76095 6.22433 7.55261 5.73599C7.35261 5.24933 7.14678 5.31099 6.99261 5.31099C6.51261 5.26933 6.16178 5.27599 5.85261 5.59766C4.50761 7.07599 4.84678 8.60099 5.99761 10.2227C8.25928 13.1827 9.46428 13.7277 11.6676 14.4843C12.2626 14.6735 12.8051 14.6468 13.2343 14.5852C13.7126 14.5093 14.7068 13.9843 14.9143 13.3968C15.1268 12.8093 15.1268 12.3218 15.0643 12.2093C15.0026 12.0968 14.8393 12.0343 14.5893 11.9218Z" fill="#C0B09D"/>
<path id="Vector_2" d="M17.1 2.87355C10.6925 -3.32062 0.0883333 1.17188 0.0841667 9.91022C0.0841667 11.6569 0.541667 13.3602 1.41333 14.8644L0 19.9994L5.27917 18.6227C11.8667 22.1811 19.9967 17.4561 20 9.91522C20 7.26855 18.9667 4.77772 17.0875 2.90605L17.1 2.87355ZM18.335 9.88772C18.33 16.2486 11.3475 20.2211 5.825 16.9744L5.525 16.7961L2.4 17.6086L3.2375 14.5711L3.03833 14.2586C-0.398333 8.78772 3.55 1.63772 10.06 1.63772C11.1471 1.63498 12.224 1.8479 13.2283 2.26416C14.2326 2.68041 15.1444 3.29172 15.9108 4.06272C16.6815 4.82403 17.2927 5.73122 17.7089 6.73134C18.1251 7.73145 18.338 8.80446 18.335 9.88772Z" fill="#C0B09D"/>
</g>
</svg>
