<svg width="24" height="24" viewBox="0 0 24 24" fill="none" xmlns="http://www.w3.org/2000/svg">
<g id="icons8-whatsapp 1">
<path id="Vector" d="M19.0767 4.92767C16.9947 2.84467 14.1547 1.79367 11.1727 2.03367C7.16365 2.35567 3.64965 5.14367 2.47365 8.98967C1.63365 11.7377 1.98665 14.6067 3.35465 16.9767L2.05865 21.2797C1.93465 21.6927 2.31165 22.0817 2.72865 21.9707L7.23265 20.7637C8.69165 21.5597 10.3336 21.9787 12.0056 21.9797H12.0097C16.2047 21.9797 20.0807 19.4137 21.4217 15.4387C22.7277 11.5627 21.7617 7.61567 19.0767 4.92767ZM16.8977 15.5537C16.6897 16.1367 15.6707 16.6987 15.2127 16.7397C14.7547 16.7817 14.3257 16.9467 12.2177 16.1157C9.68065 15.1157 8.07865 12.5147 7.95465 12.3487C7.82965 12.1817 6.93565 10.9957 6.93565 9.76767C6.93565 8.53967 7.58065 7.93567 7.80965 7.68667C8.03865 7.43667 8.30865 7.37467 8.47565 7.37467C8.64165 7.37467 8.80865 7.37467 8.95365 7.38067C9.13165 7.38767 9.32865 7.39667 9.51565 7.81167C9.73765 8.30567 10.2226 9.53967 10.2846 9.66467C10.3467 9.78967 10.3886 9.93567 10.3056 10.1017C10.2226 10.2677 10.1806 10.3717 10.0567 10.5177C9.93165 10.6637 9.79465 10.8427 9.68265 10.9547C9.55765 11.0787 9.42765 11.2147 9.57265 11.4637C9.71865 11.7137 10.2187 12.5307 10.9607 13.1917C11.9146 14.0417 12.7177 14.3047 12.9677 14.4307C13.2177 14.5557 13.3626 14.5347 13.5086 14.3677C13.6546 14.2017 14.1326 13.6397 14.2986 13.3897C14.4647 13.1397 14.6316 13.1817 14.8607 13.2647C15.0897 13.3477 16.3167 13.9517 16.5656 14.0767C16.8156 14.2017 16.9817 14.2637 17.0437 14.3677C17.1057 14.4707 17.1057 14.9707 16.8977 15.5537Z" fill="#C0B09D"/>
</g>
</svg>
