<svg width="44" height="44" viewBox="0 0 44 44" fill="none" xmlns="http://www.w3.org/2000/svg">
<circle cx="22" cy="22" r="22" fill="#3EAFE0"/>
<path d="M29.2096 13.6545C29.2096 13.6545 31.1523 12.897 30.9904 14.7366C30.9364 15.4941 30.4508 18.1454 30.073 21.0131L28.7779 29.5079C28.7779 29.5079 28.67 30.7524 27.6987 30.9688C26.7273 31.1852 25.2704 30.2113 25.0005 29.9949C24.7847 29.8326 20.9534 27.3977 19.6043 26.2074C19.2265 25.8827 18.7948 25.2334 19.6582 24.4759L25.3243 19.0652C25.9719 18.4159 26.6194 16.9009 23.9213 18.7406L16.3665 23.8808C16.3665 23.8808 15.5031 24.4218 13.8843 23.9349L10.3767 22.8527C10.3767 22.8527 9.08161 22.0411 11.2941 21.2295C16.6903 18.6864 23.3277 16.0893 29.2096 13.6545Z" fill="white"/>
</svg>
