<svg width="44" height="44" viewBox="0 0 44 44" fill="none" xmlns="http://www.w3.org/2000/svg">
<circle cx="22" cy="22" r="22" fill="#2DAE49"/>
<g clip-path="url(#clip0_927_4006)">
<path d="M22.0025 12H21.9975C16.4838 12 12 16.485 12 22C12 24.1875 12.705 26.215 13.9037 27.8612L12.6575 31.5763L16.5013 30.3475C18.0825 31.395 19.9688 32 22.0025 32C27.5162 32 32 27.5138 32 22C32 16.4863 27.5162 12 22.0025 12ZM27.8212 26.1213C27.58 26.8025 26.6225 27.3675 25.8587 27.5325C25.3363 27.6437 24.6537 27.7325 22.3562 26.78C19.4175 25.5625 17.525 22.5763 17.3775 22.3825C17.2362 22.1887 16.19 20.8013 16.19 19.3663C16.19 17.9313 16.9188 17.2325 17.2125 16.9325C17.4538 16.6863 17.8525 16.5738 18.235 16.5738C18.3587 16.5738 18.47 16.58 18.57 16.585C18.8637 16.5975 19.0113 16.615 19.205 17.0788C19.4462 17.66 20.0337 19.095 20.1038 19.2425C20.175 19.39 20.2463 19.59 20.1462 19.7838C20.0525 19.9838 19.97 20.0725 19.8225 20.2425C19.675 20.4125 19.535 20.5425 19.3875 20.725C19.2525 20.8837 19.1 21.0538 19.27 21.3475C19.44 21.635 20.0275 22.5937 20.8925 23.3637C22.0087 24.3575 22.9137 24.675 23.2375 24.81C23.4787 24.91 23.7662 24.8863 23.9425 24.6988C24.1663 24.4575 24.4425 24.0575 24.7238 23.6638C24.9237 23.3813 25.1763 23.3462 25.4412 23.4462C25.7113 23.54 27.14 24.2462 27.4338 24.3925C27.7275 24.54 27.9212 24.61 27.9925 24.7338C28.0625 24.8575 28.0625 25.4388 27.8212 26.1213Z" fill="white"/>
</g>
<defs>
<clipPath id="clip0_927_4006">
<rect width="20" height="20" fill="white" transform="translate(12 12)"/>
</clipPath>
</defs>
</svg>
